<?xml version="1.0" encoding="UTF-8" standalone="no"?><svg xmlns="http://www.w3.org/2000/svg" xmlns:xlink="http://www.w3.org/1999/xlink" contentScriptType="application/ecmascript" contentStyleType="text/css" height="1007px" preserveAspectRatio="none" style="width:553px;height:1007px;" version="1.1" viewBox="0 0 553 1007" width="553px" zoomAndPan="magnify"><defs><filter height="300%" id="f1dq4ds1u4uyce" width="300%" x="-1" y="-1"><feGaussianBlur result="blurOut" stdDeviation="2.0"/><feColorMatrix in="blurOut" result="blurOut2" type="matrix" values="0 0 0 0 0 0 0 0 0 0 0 0 0 0 0 0 0 0 .4 0"/><feOffset dx="4.0" dy="4.0" in="blurOut2" result="blurOut3"/><feBlend in="SourceGraphic" in2="blurOut3" mode="normal"/></filter></defs><g><!--MD5=[d602b77267d5088762cb6a59b8ed96b1]
class UIManager--><rect codeLine="4" fill="#FEFECE" filter="url(#f1dq4ds1u4uyce)" height="241.7031" id="UIManager" style="stroke:#A80036;stroke-width:1.5;" width="238" x="51" y="7"/><ellipse cx="135.75" cy="23" fill="#ADD1B2" rx="11" ry="11" style="stroke:#A80036;stroke-width:1.0;"/><path d="M138.5156,18.875 Q138.6719,18.6563 138.8594,18.5469 Q139.0469,18.4375 139.2656,18.4375 Q139.6406,18.4375 139.875,18.6953 Q140.1094,18.9531 140.1094,19.5625 L140.1094,21.0156 Q140.1094,21.625 139.875,21.8906 Q139.6406,22.1563 139.2656,22.1563 Q138.9219,22.1563 138.7188,21.9531 Q138.5156,21.7656 138.4063,21.25 Q138.3594,20.8906 138.1719,20.7031 Q137.8438,20.3281 137.2344,20.1094 Q136.625,19.8906 136,19.8906 Q135.2344,19.8906 134.6016,20.2188 Q133.9688,20.5469 133.4766,21.2969 Q132.9844,22.0469 132.9844,23.0781 L132.9844,24.1719 Q132.9844,25.4063 133.875,26.2266 Q134.7656,27.0469 136.3594,27.0469 Q137.2969,27.0469 137.9531,26.7969 Q138.3438,26.6406 138.7656,26.2031 Q139.0313,25.9375 139.1797,25.8594 Q139.3281,25.7813 139.5313,25.7813 Q139.8594,25.7813 140.1172,26.0391 Q140.375,26.2969 140.375,26.6406 Q140.375,26.9844 140.0313,27.3906 Q139.5313,27.9688 138.7344,28.2969 Q137.6563,28.75 136.3594,28.75 Q134.8438,28.75 133.6406,28.125 Q132.6563,27.625 131.9688,26.5547 Q131.2813,25.4844 131.2813,24.2031 L131.2813,23.0469 Q131.2813,21.7188 131.8984,20.5703 Q132.5156,19.4219 133.6094,18.8047 Q134.7031,18.1875 135.9375,18.1875 Q136.6719,18.1875 137.3203,18.3516 Q137.9688,18.5156 138.5156,18.875 Z " fill="#000000"/><text fill="#000000" font-family="sans-serif" font-size="12" lengthAdjust="spacing" textLength="60" x="156.25" y="27.9102">UIManager</text><line style="stroke:#A80036;stroke-width:1.5;" x1="52" x2="288" y1="39" y2="39"/><rect fill="none" height="6" style="stroke:#C82930;stroke-width:1.0;" width="6" x="59" y="47"/><text fill="#000000" font-family="sans-serif" font-size="11" lengthAdjust="spacing" textLength="212" x="71" y="54.4189">Dictionary&lt;KeyCode, Menu&gt; keyToMenuDict</text><rect fill="none" height="6" style="stroke:#C82930;stroke-width:1.0;" width="6" x="59" y="60.8359"/><text fill="#000000" font-family="sans-serif" font-size="11" lengthAdjust="spacing" textLength="90" x="71" y="68.2549">List&lt;Menu&gt; menus</text><ellipse cx="62" cy="77.6719" fill="none" rx="3" ry="3" style="stroke:#038048;stroke-width:1.0;"/><text fill="#000000" font-family="sans-serif" font-size="11" lengthAdjust="spacing" textLength="121" x="71" y="82.0908">Action&lt;bool&gt; OnUIToggle</text><ellipse cx="62" cy="91.5078" fill="none" rx="3" ry="3" style="stroke:#038048;stroke-width:1.0;"/><text fill="#000000" font-family="sans-serif" font-size="11" lengthAdjust="spacing" textLength="123" x="71" y="95.9268">Action&lt;int&gt; OnTabSwitch</text><ellipse cx="62" cy="105.3438" fill="none" rx="3" ry="3" style="stroke:#038048;stroke-width:1.0;"/><text fill="#000000" font-family="sans-serif" font-size="11" lengthAdjust="spacing" textLength="91" x="71" y="109.7627">Menu EscapeMenu</text><ellipse cx="62" cy="119.1797" fill="none" rx="3" ry="3" style="stroke:#038048;stroke-width:1.0;"/><text fill="#000000" font-family="sans-serif" font-size="11" lengthAdjust="spacing" textLength="77" x="71" y="123.5986">Menu TildeMenu</text><ellipse cx="62" cy="133.0156" fill="none" rx="3" ry="3" style="stroke:#038048;stroke-width:1.0;"/><text fill="#000000" font-family="sans-serif" font-size="11" lengthAdjust="spacing" textLength="86" x="71" y="137.4346">Menu ActiveMenu</text><line style="stroke:#A80036;stroke-width:1.5;" x1="52" x2="288" y1="143.8516" y2="143.8516"/><rect fill="#F24D5C" height="6" style="stroke:#C82930;stroke-width:1.0;" width="6" x="59" y="151.8516"/><text fill="#000000" font-family="sans-serif" font-size="11" lengthAdjust="spacing" textLength="60" x="71" y="159.2705">Start() : void</text><ellipse cx="62" cy="168.6875" fill="#84BE84" rx="3" ry="3" style="stroke:#038048;stroke-width:1.0;"/><text fill="#000000" font-family="sans-serif" font-size="11" lengthAdjust="spacing" textLength="95" x="71" y="173.1064">SwitchTabs() : void</text><ellipse cx="62" cy="182.5234" fill="#84BE84" rx="3" ry="3" style="stroke:#038048;stroke-width:1.0;"/><text fill="#000000" font-family="sans-serif" font-size="11" lengthAdjust="spacing" textLength="159" x="71" y="186.9424">ToggleMenu(KeyCode key) : void</text><rect fill="#F24D5C" height="6" style="stroke:#C82930;stroke-width:1.0;" width="6" x="59" y="193.3594"/><text fill="#000000" font-family="sans-serif" font-size="11" lengthAdjust="spacing" textLength="156" x="71" y="200.7783">TurnOffMenu(Menu menu) : void</text><rect fill="#F24D5C" height="6" style="stroke:#C82930;stroke-width:1.0;" width="6" x="59" y="207.1953"/><text fill="#000000" font-family="sans-serif" font-size="11" lengthAdjust="spacing" textLength="154" x="71" y="214.6143">TurnOnMenu(Menu menu) : void</text><ellipse cx="62" cy="224.0313" fill="#84BE84" rx="3" ry="3" style="stroke:#038048;stroke-width:1.0;"/><text fill="#000000" font-family="sans-serif" font-size="11" lengthAdjust="spacing" textLength="85" x="71" y="228.4502">IsUIActive() : bool</text><ellipse cx="62" cy="237.8672" fill="#84BE84" rx="3" ry="3" style="stroke:#038048;stroke-width:1.0;"/><text fill="#000000" font-family="sans-serif" font-size="11" lengthAdjust="spacing" textLength="175" x="71" y="242.2861">OnNumberKeyPress(int value) : void</text><!--MD5=[6df68ba7857817ff37f8dc63cb99c131]
class DashboardController--><rect codeLine="21" fill="#FEFECE" filter="url(#f1dq4ds1u4uyce)" height="117.1797" id="DashboardController" style="stroke:#A80036;stroke-width:1.5;" width="221" x="305.5" y="399"/><ellipse cx="353.75" cy="415" fill="#ADD1B2" rx="11" ry="11" style="stroke:#A80036;stroke-width:1.0;"/><path d="M356.5156,410.875 Q356.6719,410.6563 356.8594,410.5469 Q357.0469,410.4375 357.2656,410.4375 Q357.6406,410.4375 357.875,410.6953 Q358.1094,410.9531 358.1094,411.5625 L358.1094,413.0156 Q358.1094,413.625 357.875,413.8906 Q357.6406,414.1563 357.2656,414.1563 Q356.9219,414.1563 356.7188,413.9531 Q356.5156,413.7656 356.4063,413.25 Q356.3594,412.8906 356.1719,412.7031 Q355.8438,412.3281 355.2344,412.1094 Q354.625,411.8906 354,411.8906 Q353.2344,411.8906 352.6016,412.2188 Q351.9688,412.5469 351.4766,413.2969 Q350.9844,414.0469 350.9844,415.0781 L350.9844,416.1719 Q350.9844,417.4063 351.875,418.2266 Q352.7656,419.0469 354.3594,419.0469 Q355.2969,419.0469 355.9531,418.7969 Q356.3438,418.6406 356.7656,418.2031 Q357.0313,417.9375 357.1797,417.8594 Q357.3281,417.7813 357.5313,417.7813 Q357.8594,417.7813 358.1172,418.0391 Q358.375,418.2969 358.375,418.6406 Q358.375,418.9844 358.0313,419.3906 Q357.5313,419.9688 356.7344,420.2969 Q355.6563,420.75 354.3594,420.75 Q352.8438,420.75 351.6406,420.125 Q350.6563,419.625 349.9688,418.5547 Q349.2813,417.4844 349.2813,416.2031 L349.2813,415.0469 Q349.2813,413.7188 349.8984,412.5703 Q350.5156,411.4219 351.6094,410.8047 Q352.7031,410.1875 353.9375,410.1875 Q354.6719,410.1875 355.3203,410.3516 Q355.9688,410.5156 356.5156,410.875 Z " fill="#000000"/><text fill="#000000" font-family="sans-serif" font-size="12" lengthAdjust="spacing" textLength="116" x="374.25" y="419.9102">DashboardController</text><line style="stroke:#A80036;stroke-width:1.5;" x1="306.5" x2="525.5" y1="431" y2="431"/><rect fill="none" height="6" style="stroke:#C82930;stroke-width:1.0;" width="6" x="313.5" y="439"/><text fill="#000000" font-family="sans-serif" font-size="11" lengthAdjust="spacing" textLength="160" x="325.5" y="446.4189">DashboardMenu dashboardMenu</text><rect fill="none" height="6" style="stroke:#C82930;stroke-width:1.0;" width="6" x="313.5" y="452.8359"/><text fill="#000000" font-family="sans-serif" font-size="11" lengthAdjust="spacing" textLength="86" x="325.5" y="460.2549">HeatMap heatmap</text><line style="stroke:#A80036;stroke-width:1.5;" x1="306.5" x2="525.5" y1="466.6719" y2="466.6719"/><rect fill="#F24D5C" height="6" style="stroke:#C82930;stroke-width:1.0;" width="6" x="313.5" y="474.6719"/><text fill="#000000" font-family="sans-serif" font-size="11" lengthAdjust="spacing" textLength="60" x="325.5" y="482.0908">Start() : void</text><ellipse cx="316.5" cy="491.5078" fill="#84BE84" rx="3" ry="3" style="stroke:#038048;stroke-width:1.0;"/><text fill="#000000" font-family="sans-serif" font-size="11" lengthAdjust="spacing" textLength="111" x="325.5" y="495.9268">CreateHeatMap() : void</text><rect fill="#F24D5C" height="6" style="stroke:#C82930;stroke-width:1.0;" width="6" x="313.5" y="502.3438"/><text fill="#000000" font-family="sans-serif" font-size="11" lengthAdjust="spacing" textLength="195" x="325.5" y="509.7627">UpdateGraphic(HeatMap heatMap) : void</text><!--MD5=[f0268dd29ee89052933f031546cb1cab]
class Menu--><rect codeLine="29" fill="#FEFECE" filter="url(#f1dq4ds1u4uyce)" height="297.0469" id="Menu" style="stroke:#A80036;stroke-width:1.5;" width="201" x="69.5" y="309"/><ellipse cx="150.75" cy="325" fill="#ADD1B2" rx="11" ry="11" style="stroke:#A80036;stroke-width:1.0;"/><path d="M153.5156,320.875 Q153.6719,320.6563 153.8594,320.5469 Q154.0469,320.4375 154.2656,320.4375 Q154.6406,320.4375 154.875,320.6953 Q155.1094,320.9531 155.1094,321.5625 L155.1094,323.0156 Q155.1094,323.625 154.875,323.8906 Q154.6406,324.1563 154.2656,324.1563 Q153.9219,324.1563 153.7188,323.9531 Q153.5156,323.7656 153.4063,323.25 Q153.3594,322.8906 153.1719,322.7031 Q152.8438,322.3281 152.2344,322.1094 Q151.625,321.8906 151,321.8906 Q150.2344,321.8906 149.6016,322.2188 Q148.9688,322.5469 148.4766,323.2969 Q147.9844,324.0469 147.9844,325.0781 L147.9844,326.1719 Q147.9844,327.4063 148.875,328.2266 Q149.7656,329.0469 151.3594,329.0469 Q152.2969,329.0469 152.9531,328.7969 Q153.3438,328.6406 153.7656,328.2031 Q154.0313,327.9375 154.1797,327.8594 Q154.3281,327.7813 154.5313,327.7813 Q154.8594,327.7813 155.1172,328.0391 Q155.375,328.2969 155.375,328.6406 Q155.375,328.9844 155.0313,329.3906 Q154.5313,329.9688 153.7344,330.2969 Q152.6563,330.75 151.3594,330.75 Q149.8438,330.75 148.6406,330.125 Q147.6563,329.625 146.9688,328.5547 Q146.2813,327.4844 146.2813,326.2031 L146.2813,325.0469 Q146.2813,323.7188 146.8984,322.5703 Q147.5156,321.4219 148.6094,320.8047 Q149.7031,320.1875 150.9375,320.1875 Q151.6719,320.1875 152.3203,320.3516 Q152.9688,320.5156 153.5156,320.875 Z " fill="#000000"/><text fill="#000000" font-family="sans-serif" font-size="12" lengthAdjust="spacing" textLength="30" x="171.25" y="329.9102">Menu</text><line style="stroke:#A80036;stroke-width:1.5;" x1="70.5" x2="269.5" y1="341" y2="341"/><polygon fill="none" points="80.5,347,84.5,351,80.5,355,76.5,351" style="stroke:#B38D22;stroke-width:1.0;"/><text fill="#000000" font-family="sans-serif" font-size="11" lengthAdjust="spacing" textLength="71" x="89.5" y="356.4189">List&lt;Tab&gt; tabs</text><polygon fill="none" points="80.5,360.8359,84.5,364.8359,80.5,368.8359,76.5,364.8359" style="stroke:#B38D22;stroke-width:1.0;"/><text fill="#000000" font-family="sans-serif" font-size="11" lengthAdjust="spacing" textLength="138" x="89.5" y="370.2549">RectTransform menuBounds</text><ellipse cx="80.5" cy="379.6719" fill="none" rx="3" ry="3" style="stroke:#038048;stroke-width:1.0;"/><text fill="#000000" font-family="sans-serif" font-size="11" lengthAdjust="spacing" textLength="100" x="89.5" y="384.0908">EUIPosition uiPosition</text><polygon fill="none" points="80.5,388.5078,84.5,392.5078,80.5,396.5078,76.5,392.5078" style="stroke:#B38D22;stroke-width:1.0;"/><text fill="#000000" font-family="sans-serif" font-size="11" lengthAdjust="spacing" textLength="83" x="89.5" y="397.9268">float glideAmount</text><polygon fill="none" points="80.5,402.3438,84.5,406.3438,80.5,410.3438,76.5,406.3438" style="stroke:#B38D22;stroke-width:1.0;"/><text fill="#000000" font-family="sans-serif" font-size="11" lengthAdjust="spacing" textLength="67" x="89.5" y="411.7627">int glideSpeed</text><ellipse cx="80.5" cy="421.1797" fill="none" rx="3" ry="3" style="stroke:#038048;stroke-width:1.0;"/><text fill="#000000" font-family="sans-serif" font-size="11" lengthAdjust="spacing" textLength="61" x="89.5" y="425.5986">int activeTab</text><ellipse cx="80.5" cy="435.0156" fill="none" rx="3" ry="3" style="stroke:#038048;stroke-width:1.0;"/><text fill="#000000" font-family="sans-serif" font-size="11" lengthAdjust="spacing" textLength="80" x="89.5" y="439.4346">bool isOnScreen</text><line style="stroke:#A80036;stroke-width:1.5;" x1="70.5" x2="269.5" y1="445.8516" y2="445.8516"/><polygon fill="#FFFF44" points="80.5,451.8516,84.5,455.8516,80.5,459.8516,76.5,455.8516" style="stroke:#B38D22;stroke-width:1.0;"/><text fill="#000000" font-family="sans-serif" font-size="11" lengthAdjust="spacing" textLength="60" x="89.5" y="461.2705">Start() : void</text><rect fill="#F24D5C" height="6" style="stroke:#C82930;stroke-width:1.0;" width="6" x="77.5" y="467.6875"/><text fill="#000000" font-family="sans-serif" font-size="11" lengthAdjust="spacing" textLength="65" x="89.5" y="475.1064">void Update()</text><rect fill="#F24D5C" height="6" style="stroke:#C82930;stroke-width:1.0;" width="6" x="77.5" y="481.5234"/><text fill="#000000" font-family="sans-serif" font-size="11" lengthAdjust="spacing" textLength="115" x="89.5" y="488.9424">InitializeTabsList() : void</text><rect fill="#F24D5C" height="6" style="stroke:#C82930;stroke-width:1.0;" width="6" x="77.5" y="495.3594"/><text fill="#000000" font-family="sans-serif" font-size="11" lengthAdjust="spacing" textLength="114" x="89.5" y="502.7783">TryFetchTab(int i) : void</text><rect fill="#F24D5C" height="6" style="stroke:#C82930;stroke-width:1.0;" width="6" x="77.5" y="509.1953"/><text fill="#000000" font-family="sans-serif" font-size="11" lengthAdjust="spacing" textLength="112" x="89.5" y="516.6143">DeactivateTabs() : void</text><rect fill="#F24D5C" height="6" style="stroke:#C82930;stroke-width:1.0;" width="6" x="77.5" y="523.0313"/><text fill="#000000" font-family="sans-serif" font-size="11" lengthAdjust="spacing" textLength="135" x="89.5" y="530.4502">InitializeGlideAmount() : void</text><ellipse cx="80.5" cy="539.8672" fill="#84BE84" rx="3" ry="3" style="stroke:#038048;stroke-width:1.0;"/><text fill="#000000" font-family="sans-serif" font-size="11" lengthAdjust="spacing" textLength="132" x="89.5" y="544.2861">ToggleMenuHandler() : void</text><polygon fill="#FFFF44" points="80.5,548.7031,84.5,552.7031,80.5,556.7031,76.5,552.7031" style="stroke:#B38D22;stroke-width:1.0;"/><text fill="#000000" font-family="sans-serif" font-size="11" lengthAdjust="spacing" textLength="158" x="89.5" y="558.1221">GlideTowardsDestination() : void</text><ellipse cx="80.5" cy="567.5391" fill="#84BE84" rx="3" ry="3" style="stroke:#038048;stroke-width:1.0;"/><text fill="#000000" font-family="sans-serif" font-size="11" lengthAdjust="spacing" textLength="95" x="89.5" y="571.958">SwitchTabs() : void</text><ellipse cx="80.5" cy="581.375" fill="#84BE84" rx="3" ry="3" style="stroke:#038048;stroke-width:1.0;"/><text fill="#000000" font-family="sans-serif" font-size="11" lengthAdjust="spacing" textLength="129" x="89.5" y="585.7939">SwitchTab(int index) : void</text><ellipse cx="80.5" cy="595.2109" fill="#84BE84" rx="3" ry="3" style="stroke:#038048;stroke-width:1.0;"/><text fill="#000000" font-family="sans-serif" font-size="11" lengthAdjust="spacing" textLength="175" x="89.5" y="599.6299">OnNumberKeyPress(int index) : void</text><!--MD5=[12f7c8f6d8c33cec3d94c70db01e9d3c]
class ModeMenu--><rect codeLine="50" fill="#FEFECE" filter="url(#f1dq4ds1u4uyce)" height="32" id="ModeMenu" style="stroke:#A80036;stroke-width:1.5;" width="92" x="7" y="697.5"/><ellipse cx="22" cy="713.5" fill="#ADD1B2" rx="11" ry="11" style="stroke:#A80036;stroke-width:1.0;"/><path d="M24.7656,709.375 Q24.9219,709.1563 25.1094,709.0469 Q25.2969,708.9375 25.5156,708.9375 Q25.8906,708.9375 26.125,709.1953 Q26.3594,709.4531 26.3594,710.0625 L26.3594,711.5156 Q26.3594,712.125 26.125,712.3906 Q25.8906,712.6563 25.5156,712.6563 Q25.1719,712.6563 24.9688,712.4531 Q24.7656,712.2656 24.6563,711.75 Q24.6094,711.3906 24.4219,711.2031 Q24.0938,710.8281 23.4844,710.6094 Q22.875,710.3906 22.25,710.3906 Q21.4844,710.3906 20.8516,710.7188 Q20.2188,711.0469 19.7266,711.7969 Q19.2344,712.5469 19.2344,713.5781 L19.2344,714.6719 Q19.2344,715.9063 20.125,716.7266 Q21.0156,717.5469 22.6094,717.5469 Q23.5469,717.5469 24.2031,717.2969 Q24.5938,717.1406 25.0156,716.7031 Q25.2813,716.4375 25.4297,716.3594 Q25.5781,716.2813 25.7813,716.2813 Q26.1094,716.2813 26.3672,716.5391 Q26.625,716.7969 26.625,717.1406 Q26.625,717.4844 26.2813,717.8906 Q25.7813,718.4688 24.9844,718.7969 Q23.9063,719.25 22.6094,719.25 Q21.0938,719.25 19.8906,718.625 Q18.9063,718.125 18.2188,717.0547 Q17.5313,715.9844 17.5313,714.7031 L17.5313,713.5469 Q17.5313,712.2188 18.1484,711.0703 Q18.7656,709.9219 19.8594,709.3047 Q20.9531,708.6875 22.1875,708.6875 Q22.9219,708.6875 23.5703,708.8516 Q24.2188,709.0156 24.7656,709.375 Z " fill="#000000"/><text fill="#000000" font-family="sans-serif" font-size="12" lengthAdjust="spacing" textLength="60" x="36" y="718.4102">ModeMenu</text><!--MD5=[38daf90203260815561e71cef019dc28]
class DashboardMenu--><rect codeLine="54" fill="#FEFECE" filter="url(#f1dq4ds1u4uyce)" height="75.6719" id="DashboardMenu" style="stroke:#A80036;stroke-width:1.5;" width="273" x="266.5" y="675.5"/><ellipse cx="352.75" cy="691.5" fill="#ADD1B2" rx="11" ry="11" style="stroke:#A80036;stroke-width:1.0;"/><path d="M355.5156,687.375 Q355.6719,687.1563 355.8594,687.0469 Q356.0469,686.9375 356.2656,686.9375 Q356.6406,686.9375 356.875,687.1953 Q357.1094,687.4531 357.1094,688.0625 L357.1094,689.5156 Q357.1094,690.125 356.875,690.3906 Q356.6406,690.6563 356.2656,690.6563 Q355.9219,690.6563 355.7188,690.4531 Q355.5156,690.2656 355.4063,689.75 Q355.3594,689.3906 355.1719,689.2031 Q354.8438,688.8281 354.2344,688.6094 Q353.625,688.3906 353,688.3906 Q352.2344,688.3906 351.6016,688.7188 Q350.9688,689.0469 350.4766,689.7969 Q349.9844,690.5469 349.9844,691.5781 L349.9844,692.6719 Q349.9844,693.9063 350.875,694.7266 Q351.7656,695.5469 353.3594,695.5469 Q354.2969,695.5469 354.9531,695.2969 Q355.3438,695.1406 355.7656,694.7031 Q356.0313,694.4375 356.1797,694.3594 Q356.3281,694.2813 356.5313,694.2813 Q356.8594,694.2813 357.1172,694.5391 Q357.375,694.7969 357.375,695.1406 Q357.375,695.4844 357.0313,695.8906 Q356.5313,696.4688 355.7344,696.7969 Q354.6563,697.25 353.3594,697.25 Q351.8438,697.25 350.6406,696.625 Q349.6563,696.125 348.9688,695.0547 Q348.2813,693.9844 348.2813,692.7031 L348.2813,691.5469 Q348.2813,690.2188 348.8984,689.0703 Q349.5156,687.9219 350.6094,687.3047 Q351.7031,686.6875 352.9375,686.6875 Q353.6719,686.6875 354.3203,686.8516 Q354.9688,687.0156 355.5156,687.375 Z " fill="#000000"/><text fill="#000000" font-family="sans-serif" font-size="12" lengthAdjust="spacing" textLength="92" x="373.25" y="696.4102">DashboardMenu</text><line style="stroke:#A80036;stroke-width:1.5;" x1="267.5" x2="538.5" y1="707.5" y2="707.5"/><rect fill="none" height="6" style="stroke:#C82930;stroke-width:1.0;" width="6" x="274.5" y="715.5"/><text fill="#000000" font-family="sans-serif" font-size="11" lengthAdjust="spacing" textLength="100" x="286.5" y="722.9189">Image heatmapImage</text><line style="stroke:#A80036;stroke-width:1.5;" x1="267.5" x2="538.5" y1="729.3359" y2="729.3359"/><ellipse cx="277.5" cy="740.3359" fill="#84BE84" rx="3" ry="3" style="stroke:#038048;stroke-width:1.0;"/><text fill="#000000" font-family="sans-serif" font-size="11" lengthAdjust="spacing" textLength="247" x="286.5" y="744.7549">UpdateSpriteFromTexture(Texture2D texture) : void</text><!--MD5=[86cb79e53930c0153cd693d492fd6a03]
class Tab--><rect codeLine="59" fill="#FEFECE" filter="url(#f1dq4ds1u4uyce)" height="172.5234" id="Tab" style="stroke:#A80036;stroke-width:1.5;" width="177" x="139.5" y="821"/><ellipse cx="213.25" cy="837" fill="#ADD1B2" rx="11" ry="11" style="stroke:#A80036;stroke-width:1.0;"/><path d="M216.0156,832.875 Q216.1719,832.6563 216.3594,832.5469 Q216.5469,832.4375 216.7656,832.4375 Q217.1406,832.4375 217.375,832.6953 Q217.6094,832.9531 217.6094,833.5625 L217.6094,835.0156 Q217.6094,835.625 217.375,835.8906 Q217.1406,836.1563 216.7656,836.1563 Q216.4219,836.1563 216.2188,835.9531 Q216.0156,835.7656 215.9063,835.25 Q215.8594,834.8906 215.6719,834.7031 Q215.3438,834.3281 214.7344,834.1094 Q214.125,833.8906 213.5,833.8906 Q212.7344,833.8906 212.1016,834.2188 Q211.4688,834.5469 210.9766,835.2969 Q210.4844,836.0469 210.4844,837.0781 L210.4844,838.1719 Q210.4844,839.4063 211.375,840.2266 Q212.2656,841.0469 213.8594,841.0469 Q214.7969,841.0469 215.4531,840.7969 Q215.8438,840.6406 216.2656,840.2031 Q216.5313,839.9375 216.6797,839.8594 Q216.8281,839.7813 217.0313,839.7813 Q217.3594,839.7813 217.6172,840.0391 Q217.875,840.2969 217.875,840.6406 Q217.875,840.9844 217.5313,841.3906 Q217.0313,841.9688 216.2344,842.2969 Q215.1563,842.75 213.8594,842.75 Q212.3438,842.75 211.1406,842.125 Q210.1563,841.625 209.4688,840.5547 Q208.7813,839.4844 208.7813,838.2031 L208.7813,837.0469 Q208.7813,835.7188 209.3984,834.5703 Q210.0156,833.4219 211.1094,832.8047 Q212.2031,832.1875 213.4375,832.1875 Q214.1719,832.1875 214.8203,832.3516 Q215.4688,832.5156 216.0156,832.875 Z " fill="#000000"/><text fill="#000000" font-family="sans-serif" font-size="12" lengthAdjust="spacing" textLength="21" x="233.75" y="841.9102">Tab</text><line style="stroke:#A80036;stroke-width:1.5;" x1="140.5" x2="315.5" y1="853" y2="853"/><rect fill="none" height="6" style="stroke:#C82930;stroke-width:1.0;" width="6" x="147.5" y="861"/><text fill="#000000" font-family="sans-serif" font-size="11" lengthAdjust="spacing" textLength="60" x="159.5" y="868.4189">Menu parent</text><rect fill="none" height="6" style="stroke:#C82930;stroke-width:1.0;" width="6" x="147.5" y="874.8359"/><text fill="#000000" font-family="sans-serif" font-size="11" lengthAdjust="spacing" textLength="99" x="159.5" y="882.2549">List&lt;Button&gt; buttons</text><line style="stroke:#A80036;stroke-width:1.5;" x1="140.5" x2="315.5" y1="888.6719" y2="888.6719"/><rect fill="#F24D5C" height="6" style="stroke:#C82930;stroke-width:1.0;" width="6" x="147.5" y="896.6719"/><text fill="#000000" font-family="sans-serif" font-size="11" lengthAdjust="spacing" textLength="60" x="159.5" y="904.0908">Start() : void</text><rect fill="#F24D5C" height="6" style="stroke:#C82930;stroke-width:1.0;" width="6" x="147.5" y="910.5078"/><text fill="#000000" font-family="sans-serif" font-size="11" lengthAdjust="spacing" textLength="122" x="159.5" y="917.9268">InitializeButtonList() : void</text><rect fill="#F24D5C" height="6" style="stroke:#C82930;stroke-width:1.0;" width="6" x="147.5" y="924.3438"/><text fill="#000000" font-family="sans-serif" font-size="11" lengthAdjust="spacing" textLength="111" x="159.5" y="931.7627">TryFetchButton() : void</text><ellipse cx="150.5" cy="941.1797" fill="#84BE84" rx="3" ry="3" style="stroke:#038048;stroke-width:1.0;"/><text fill="#000000" font-family="sans-serif" font-size="11" lengthAdjust="spacing" textLength="106" x="159.5" y="945.5986">ButtonClick(int i) : void</text><ellipse cx="150.5" cy="955.0156" fill="#84BE84" rx="3" ry="3" style="stroke:#038048;stroke-width:1.0;"/><text fill="#000000" font-family="sans-serif" font-size="11" lengthAdjust="spacing" textLength="90" x="159.5" y="959.4346">DeActivate() : void</text><ellipse cx="150.5" cy="968.8516" fill="#84BE84" rx="3" ry="3" style="stroke:#038048;stroke-width:1.0;"/><text fill="#000000" font-family="sans-serif" font-size="11" lengthAdjust="spacing" textLength="77" x="159.5" y="973.2705">Activate() : void</text><rect fill="#F24D5C" height="6" style="stroke:#C82930;stroke-width:1.0;" width="6" x="147.5" y="979.6875"/><text fill="#000000" font-family="sans-serif" font-size="11" lengthAdjust="spacing" textLength="151" x="159.5" y="987.1064">SetTransparency(float a) : void</text><!--MD5=[878703ecc62226736b1ebc5c07039352]
class EUIPosition--><rect codeLine="71" fill="#FEFECE" filter="url(#f1dq4ds1u4uyce)" height="95.3438" id="EUIPosition" style="stroke:#A80036;stroke-width:1.5;" width="97" x="134.5" y="666"/><ellipse cx="149.5" cy="682" fill="#EB937F" rx="11" ry="11" style="stroke:#A80036;stroke-width:1.0;"/><path d="M148.3594,682.7969 L148.3594,685.2969 L152.6875,685.2969 L152.6875,684.375 Q152.6875,683.7656 152.9297,683.5 Q153.1719,683.2344 153.5469,683.2344 Q153.9219,683.2344 154.1563,683.5 Q154.3906,683.7656 154.3906,684.375 L154.3906,687 L146.3906,687 Q145.7656,687 145.5078,686.7656 Q145.25,686.5313 145.25,686.1406 Q145.25,685.7656 145.5156,685.5313 Q145.7813,685.2969 146.3906,685.2969 L146.6563,685.2969 L146.6563,678.6406 L146.3906,678.6406 Q145.7656,678.6406 145.5078,678.4063 Q145.25,678.1719 145.25,677.7813 Q145.25,677.4063 145.5078,677.1719 Q145.7656,676.9375 146.3906,676.9375 L154.0156,676.9375 L154.0156,679.5313 Q154.0156,680.1406 153.7891,680.3984 Q153.5625,680.6563 153.1719,680.6563 Q152.7969,680.6563 152.5625,680.3984 Q152.3281,680.1406 152.3281,679.5313 L152.3281,678.6406 L148.3594,678.6406 L148.3594,681.0938 L149.8438,681.0938 Q149.8438,680.4375 149.9688,680.25 Q150.2344,679.8438 150.7031,679.8438 Q151.0781,679.8438 151.3125,680.1016 Q151.5469,680.3594 151.5469,680.9688 L151.5469,682.9375 Q151.5469,683.4844 151.4219,683.6719 Q151.1563,684.0625 150.7031,684.0625 Q150.2344,684.0625 149.9688,683.6563 Q149.8438,683.4688 149.8438,682.7969 L148.3594,682.7969 Z " fill="#000000"/><text fill="#000000" font-family="sans-serif" font-size="12" lengthAdjust="spacing" textLength="65" x="163.5" y="686.9102">EUIPosition</text><line style="stroke:#A80036;stroke-width:1.5;" x1="135.5" x2="230.5" y1="698" y2="698"/><text fill="#000000" font-family="sans-serif" font-size="11" lengthAdjust="spacing" textLength="15" x="140.5" y="713.4189">top</text><text fill="#000000" font-family="sans-serif" font-size="11" lengthAdjust="spacing" textLength="32" x="140.5" y="727.2549">bottom</text><text fill="#000000" font-family="sans-serif" font-size="11" lengthAdjust="spacing" textLength="15" x="140.5" y="741.0908">left</text><text fill="#000000" font-family="sans-serif" font-size="11" lengthAdjust="spacing" textLength="21" x="140.5" y="754.9268">right</text><!--MD5=[ed006a805adaf371b5cd1af2f591cba2]
link UIManager to Menu--><path codeLine="78" d="M170,249.09 C170,264.28 170,280.01 170,295.7 " fill="none" id="UIManager-to-Menu" style="stroke:#A80036;stroke-width:1.0;"/><polygon fill="#FFFFFF" points="170,308.86,174,302.86,170,296.86,166,302.86,170,308.86" style="stroke:#A80036;stroke-width:1.0;"/><!--MD5=[1991880b3d4c65c6e1303f1ac674bedb]
reverse link Menu to EUIPosition--><path codeLine="79" d="M178.6,626.58 C179.32,640.66 180.01,653.98 180.61,665.75 " fill="none" id="Menu-backto-EUIPosition" style="stroke:#A80036;stroke-width:1.0;"/><polygon fill="none" points="171.59,626.58,177.56,606.25,185.58,625.87,171.59,626.58" style="stroke:#A80036;stroke-width:1.0;"/><!--MD5=[5806e89579a525e86ca318e82b8dbc6c]
reverse link Menu to DashboardMenu--><path codeLine="80" d="M283.91,601.57 C285.28,603.06 286.64,604.54 288,606 C310.61,630.31 337.79,655.63 360.05,675.49 " fill="none" id="Menu-backto-DashboardMenu" style="stroke:#A80036;stroke-width:1.0;"/><polygon fill="none" points="278.66,606.2,270.53,586.63,289.09,596.86,278.66,606.2" style="stroke:#A80036;stroke-width:1.0;"/><!--MD5=[af163ae6357d77cc922f31cff9354adb]
reverse link Menu to ModeMenu--><path codeLine="81" d="M93.4,624.79 C79.56,654.84 67.21,681.64 59.92,697.48 " fill="none" id="Menu-backto-ModeMenu" style="stroke:#A80036;stroke-width:1.0;"/><polygon fill="none" points="87.22,621.49,101.94,606.25,99.93,627.35,87.22,621.49" style="stroke:#A80036;stroke-width:1.0;"/><!--MD5=[b6895ab26c4595b01b6c828b3dcbbdbd]
link DashboardController to DashboardMenu--><path codeLine="82" d="M413.05,516.14 C410.65,562.97 407.33,627.97 405.17,670.13 " fill="none" id="DashboardController-to-DashboardMenu" style="stroke:#A80036;stroke-width:1.0;"/><polygon fill="#A80036" points="404.91,675.15,409.3683,666.368,405.1675,670.1566,401.3789,665.9559,404.91,675.15" style="stroke:#A80036;stroke-width:1.0;"/><!--MD5=[9665d0d3afc384c1e72ff6d73d486ba1]
link DashboardMenu to Tab--><path codeLine="83" d="M369.26,751.52 C352.19,770.24 330.68,793.85 309.61,816.96 " fill="none" id="DashboardMenu-to-Tab" style="stroke:#A80036;stroke-width:1.0;"/><polygon fill="#A80036" points="306.24,820.66,315.25,816.6826,309.5998,816.9571,309.3253,811.3069,306.24,820.66" style="stroke:#A80036;stroke-width:1.0;"/><!--MD5=[d49e0fbf228a48df31921c9d235a19c9]
link ModeMenu to Tab--><path codeLine="84" d="M66.73,729.57 C84.15,748.68 115.62,783.2 146.16,816.71 " fill="none" id="ModeMenu-to-Tab" style="stroke:#A80036;stroke-width:1.0;"/><polygon fill="#A80036" points="149.88,820.79,146.7749,811.4434,146.5124,817.0942,140.8616,816.8316,149.88,820.79" style="stroke:#A80036;stroke-width:1.0;"/><!--MD5=[99e806402cbd37b4ea1df0b62a4b42d5]
@startuml

hide empty members

class UIManager {
    - Dictionary<KeyCode, Menu> keyToMenuDict
    - List<Menu> menus
    + Action<bool> OnUIToggle
    + Action<int> OnTabSwitch
    + Menu EscapeMenu
    + Menu TildeMenu
    + Menu ActiveMenu
    - Start() : void
    + SwitchTabs() : void
    + ToggleMenu(KeyCode key) : void
    - TurnOffMenu(Menu menu) : void
    - TurnOnMenu(Menu menu) : void
    + IsUIActive() : bool
    + OnNumberKeyPress(int value) : void
}

class DashboardController {
    - DashboardMenu dashboardMenu
    - HeatMap heatmap
    - Start() : void
    + CreateHeatMap() : void
    - UpdateGraphic(HeatMap heatMap) : void
}

class Menu {
    # List<Tab> tabs
    # RectTransform menuBounds
    + EUIPosition uiPosition
    # float glideAmount
    # int glideSpeed
    + int activeTab
    + bool isOnScreen
    # Start() : void
    - void Update()
    - InitializeTabsList() : void
    - TryFetchTab(int i) : void
    - DeactivateTabs() : void
    - InitializeGlideAmount() : void
    + ToggleMenuHandler() : void
    # GlideTowardsDestination() : void
    + SwitchTabs() : void
    + SwitchTab(int index) : void
    + OnNumberKeyPress(int index) : void
}

class ModeMenu {

}

class DashboardMenu {
    - Image heatmapImage
    + UpdateSpriteFromTexture(Texture2D texture) : void
}

class Tab {
    - Menu parent
    - List<Button> buttons
    - Start() : void
    - InitializeButtonList() : void
    - TryFetchButton() : void
    + ButtonClick(int i) : void
    + DeActivate() : void
    + Activate() : void
    - SetTransparency(float a) : void
}

enum EUIPosition {
    top
    bottom
    left
    right
}

UIManager - -o Menu
Menu <|- - EUIPosition
Menu <|- - DashboardMenu
Menu <|- - ModeMenu
DashboardController - -> DashboardMenu
DashboardMenu - -> Tab
ModeMenu - -> Tab

@enduml

PlantUML version 1.2021.00(Sun Jan 10 05:25:05 EST 2021)
(GPL source distribution)
Java Runtime: Java(TM) SE Runtime Environment
JVM: Java HotSpot(TM) 64-Bit Server VM
Default Encoding: Cp1252
Language: en
Country: US
--></g></svg>